<?xml version="1.0" standalone="no"?>
<!DOCTYPE svg PUBLIC "-//W3C//DTD SVG 20010904//EN"
 "http://www.w3.org/TR/2001/REC-SVG-20010904/DTD/svg10.dtd">
<svg version="1.0" xmlns="http://www.w3.org/2000/svg"
 width="1024.000000pt" height="1024.000000pt" viewBox="0 0 1024.000000 1024.000000"
 preserveAspectRatio="xMidYMid meet">
<metadata>
Created by potrace 1.14, written by Peter Selinger 2001-2017
</metadata>
<g transform="translate(0.000000,1024.000000) scale(0.100000,-0.100000)"
fill="#000000" stroke="none">
<path d="M4987 9803 c-1 -1 -58 -4 -127 -8 -140 -8 -162 -10 -240 -19 -30 -4
-73 -9 -95 -11 -57 -6 -153 -22 -315 -52 -60 -11 -210 -45 -260 -59 -30 -9
-66 -18 -79 -21 -41 -7 -402 -129 -481 -163 -41 -17 -79 -33 -85 -34 -52 -15
-495 -235 -525 -260 -8 -7 -35 -24 -60 -37 -25 -13 -47 -27 -50 -30 -3 -3 -34
-23 -70 -44 -36 -21 -67 -41 -70 -44 -3 -4 -25 -19 -50 -36 -50 -33 -272 -195
-280 -205 -3 -3 -52 -46 -110 -95 -118 -100 -470 -448 -470 -465 0 -6 -4 -8
-10 -5 -5 3 -10 1 -10 -5 0 -6 -6 -17 -13 -24 -16 -16 -72 -84 -140 -171 -31
-38 -63 -78 -71 -87 -9 -10 -16 -21 -16 -25 0 -4 -8 -16 -19 -27 -16 -18 -135
-194 -207 -306 -69 -108 -212 -382 -289 -552 -33 -73 -135 -334 -140 -356 -2
-9 -13 -44 -25 -77 -11 -33 -37 -116 -56 -185 -35 -123 -40 -142 -50 -187 -2
-12 -8 -33 -14 -47 -5 -13 -6 -26 -3 -29 3 -3 1 -12 -3 -19 -4 -7 -9 -19 -9
-28 -1 -14 -8 -49 -20 -110 -3 -14 -7 -38 -10 -55 -3 -16 -7 -41 -10 -55 -10
-53 -16 -96 -20 -135 -3 -22 -7 -60 -10 -85 -13 -115 -16 -147 -21 -238 -12
-193 -6 -611 10 -712 2 -14 7 -54 11 -90 7 -72 10 -101 19 -157 3 -21 9 -55
12 -77 3 -21 8 -48 10 -60 4 -20 12 -68 20 -109 2 -10 5 -26 8 -35 3 -9 7 -28
10 -42 3 -20 29 -131 51 -220 27 -107 120 -383 185 -545 75 -189 210 -458 316
-634 38 -62 74 -121 79 -130 6 -9 28 -43 50 -75 22 -32 45 -66 50 -75 21 -36
188 -252 271 -352 98 -117 378 -400 499 -505 127 -110 289 -233 440 -336 149
-101 306 -197 316 -195 4 1 15 -5 25 -15 23 -20 307 -163 424 -213 126 -54
283 -114 355 -136 22 -6 45 -15 50 -20 6 -4 22 -10 35 -13 14 -3 41 -10 60
-16 19 -6 45 -13 58 -16 13 -2 42 -11 65 -19 23 -8 57 -17 76 -20 19 -3 37 -8
41 -10 6 -4 16 -6 88 -21 15 -3 47 -10 72 -16 25 -5 59 -12 75 -14 17 -3 41
-7 55 -11 28 -7 52 -11 95 -17 17 -2 50 -7 75 -11 119 -17 245 -30 405 -41
146 -11 484 -5 655 11 36 4 83 8 105 10 22 2 59 6 83 9 23 3 59 8 80 11 20 3
51 7 67 11 17 3 44 7 60 9 17 2 84 16 150 30 66 14 129 27 140 29 269 57 719
221 1013 371 160 81 388 209 402 224 3 3 46 32 95 65 82 53 240 166 290 207
237 194 258 213 419 374 138 137 178 183 168 189 -7 4 -89 -31 -102 -44 -3 -3
-32 -5 -65 -5 -62 0 -145 -21 -145 -37 0 -5 -4 -7 -9 -3 -5 3 -12 1 -15 -4 -7
-11 -51 -19 -136 -26 -42 -4 -69 -11 -77 -21 -6 -8 -17 -14 -25 -13 -7 1 -26
-3 -42 -10 -16 -6 -31 -9 -34 -6 -3 2 -11 0 -18 -6 -8 -6 -21 -9 -29 -5 -9 3
-33 -1 -53 -10 -20 -9 -66 -18 -102 -20 -85 -6 -105 -10 -103 -21 1 -5 -13 -9
-30 -9 -50 -2 -97 -8 -97 -14 0 -3 -12 -6 -28 -7 -50 -5 -67 -11 -65 -21 2 -6
-4 -9 -12 -6 -9 4 -21 1 -29 -5 -7 -6 -35 -13 -62 -16 -27 -2 -63 -8 -80 -13
-17 -6 -50 -6 -72 -2 -23 4 -39 3 -36 -1 3 -5 -5 -8 -18 -7 -13 0 -46 -8 -74
-20 -28 -11 -56 -17 -63 -13 -7 5 -25 6 -39 4 -15 -2 -49 -5 -77 -7 -27 -3
-61 -7 -75 -11 -14 -3 -37 -6 -52 -6 -16 0 -28 -4 -28 -8 0 -4 -22 -6 -50 -5
-27 1 -50 -1 -50 -4 0 -11 -122 -6 -150 6 -14 5 -30 6 -35 1 -6 -4 -17 -4 -25
1 -9 5 -19 5 -27 -2 -7 -6 -13 -7 -13 -2 0 5 -12 10 -27 10 -16 1 -39 5 -53 9
-14 4 -45 8 -70 10 -25 1 -47 4 -50 5 -3 1 -9 3 -15 4 -5 1 -23 7 -38 14 -16
7 -32 12 -36 12 -5 0 -14 7 -22 16 -7 8 -20 13 -29 11 -11 -3 -28 9 -46 30
-16 19 -43 41 -60 49 -23 11 -38 29 -53 66 -12 28 -21 58 -21 67 -1 20 -24 51
-39 51 -6 0 -11 6 -11 14 0 8 -5 16 -11 18 -7 2 -11 31 -11 71 0 52 -4 69 -17
77 -9 5 -11 10 -5 10 6 0 10 35 10 98 -1 70 3 100 12 108 8 5 14 28 14 50 0
21 3 43 6 49 3 5 7 21 9 35 7 79 22 140 33 140 4 0 11 17 15 38 4 20 10 42 15
47 4 6 15 35 25 65 10 30 25 60 34 67 9 7 12 13 7 13 -5 0 -2 8 6 18 14 16 30
53 33 77 1 12 57 123 95 190 16 28 38 69 48 91 11 23 25 45 31 48 6 4 11 17
11 29 0 13 13 37 30 55 16 18 33 45 36 60 4 15 15 36 24 47 10 11 31 45 46 75
16 30 35 60 44 67 8 7 11 13 7 13 -14 0 26 60 44 65 11 4 20 21 24 44 3 20 15
44 26 51 10 8 19 24 19 35 0 12 13 34 30 50 16 15 27 31 25 35 -3 4 2 13 10
20 8 7 15 19 15 26 0 8 4 14 9 14 5 0 20 24 34 54 16 33 34 57 48 61 14 5 17
10 10 14 -10 6 10 42 47 87 5 6 13 21 17 35 12 36 36 69 50 69 13 0 30 28 27
43 -1 4 2 7 6 7 4 0 14 17 21 38 8 20 22 55 31 77 10 22 18 42 17 45 -1 3 13
20 31 39 21 22 30 41 27 52 -3 9 -1 20 5 24 5 3 10 21 10 40 0 19 4 36 8 39
10 6 9 42 0 51 -11 12 -122 9 -126 -3 -2 -6 -10 -8 -17 -6 -8 3 -40 -2 -72
-12 -32 -10 -75 -17 -95 -15 -21 1 -38 -2 -38 -7 0 -6 -15 -13 -32 -17 -18 -4
-47 -13 -64 -20 -16 -8 -46 -16 -65 -19 -59 -8 -69 -12 -90 -29 -10 -9 -23
-16 -27 -15 -4 0 -14 -2 -22 -5 -55 -23 -77 -30 -92 -28 -9 1 -19 -3 -23 -9
-3 -5 -19 -10 -35 -10 -15 0 -30 -5 -32 -11 -3 -10 -16 -13 -75 -18 -7 -1 -13
-7 -13 -14 0 -8 -11 -12 -30 -11 -17 1 -32 -2 -35 -6 -3 -4 -14 -6 -25 -3 -11
3 -20 0 -20 -6 0 -6 -11 -16 -25 -23 -13 -6 -22 -15 -18 -20 3 -6 -3 -5 -14 1
-24 12 -65 11 -75 -4 -5 -6 -8 -6 -8 2 0 11 -7 11 -45 3 -5 -1 -12 -2 -15 -1
-3 1 -22 4 -43 6 -25 3 -49 14 -65 30 -14 14 -35 28 -48 31 -23 6 -60 51 -50
61 2 3 1 15 -4 28 -7 19 -4 26 13 39 14 9 18 18 12 23 -16 13 -36 53 -26 53 5
0 12 15 15 34 8 42 34 96 47 96 9 0 48 79 53 106 1 6 19 28 40 50 20 21 40 51
43 66 3 14 18 38 34 52 16 15 29 35 29 45 0 10 7 24 15 31 8 7 12 16 9 21 -3
5 2 9 10 9 9 0 16 5 16 11 0 11 46 77 66 95 7 6 14 17 16 24 2 8 15 25 31 38
15 13 25 27 22 32 -3 4 1 10 8 13 7 2 21 22 32 43 35 70 97 162 111 168 8 3
14 12 14 21 0 9 11 28 25 43 14 15 25 34 25 42 0 13 34 58 83 110 8 8 18 26
22 40 4 14 17 36 30 50 13 14 26 35 29 47 4 12 23 31 43 43 19 11 33 23 30 26
-3 4 3 15 14 27 10 11 19 31 19 44 0 13 5 23 10 23 6 0 10 7 10 15 0 8 4 15
10 15 5 0 21 24 36 54 27 55 55 94 109 151 17 18 29 38 27 46 -1 8 11 28 28
44 16 16 30 39 30 51 0 12 18 39 40 62 22 22 40 43 40 47 0 5 11 22 24 39 12
17 33 51 44 76 34 70 62 113 93 141 16 14 29 29 29 33 0 8 18 30 43 54 9 9 17
22 17 29 0 7 5 13 11 13 5 0 7 5 4 10 -3 6 -1 10 5 10 6 0 9 4 6 8 -3 5 2 18
12 28 9 11 18 26 20 34 2 8 9 21 15 28 6 8 12 21 13 29 2 9 16 30 31 47 33 36
59 83 50 92 -3 3 -20 -5 -37 -18 -18 -13 -42 -22 -56 -20 -15 2 -24 -2 -24
-11 0 -16 -41 -57 -58 -57 -6 0 -15 -6 -19 -13 -7 -12 -38 -28 -53 -28 -3 0
-8 -6 -13 -14 -4 -7 -25 -16 -47 -20 -22 -4 -40 -11 -40 -15 0 -5 -11 -20 -25
-34 -14 -14 -25 -22 -25 -19 0 3 -12 -6 -26 -21 -15 -14 -33 -26 -40 -26 -7 0
-43 -29 -79 -65 -36 -36 -72 -65 -79 -65 -8 0 -30 -15 -50 -32 -54 -51 -64
-58 -80 -58 -9 0 -39 -22 -67 -50 -28 -27 -55 -50 -59 -50 -5 0 -10 -4 -12
-10 -1 -5 -23 -20 -48 -33 -25 -13 -49 -33 -55 -45 -5 -12 -15 -22 -22 -22 -7
0 -13 -4 -13 -10 0 -5 -6 -10 -14 -10 -8 0 -16 -4 -18 -8 -1 -4 -24 -24 -49
-43 -26 -20 -44 -40 -41 -48 3 -9 0 -11 -7 -7 -14 9 -42 -8 -94 -58 -21 -20
-45 -36 -53 -36 -8 0 -14 -5 -14 -11 0 -5 -16 -17 -35 -24 -19 -8 -39 -24 -45
-35 -6 -11 -15 -18 -21 -15 -5 4 -9 1 -9 -5 0 -6 -13 -16 -30 -21 -16 -6 -30
-16 -30 -22 -1 -25 -48 -66 -100 -87 -14 -6 -29 -16 -35 -23 -5 -7 -28 -25
-50 -41 -22 -16 -47 -35 -55 -43 -40 -35 -130 -103 -130 -99 0 7 -62 -56 -100
-100 -14 -17 -42 -38 -63 -48 -21 -10 -36 -20 -33 -23 5 -5 -17 -28 -61 -63
-7 -6 -16 -10 -21 -10 -4 0 -18 -13 -30 -30 -13 -16 -29 -30 -37 -30 -8 0 -15
-4 -15 -10 0 -5 -6 -10 -13 -10 -7 0 -17 -8 -24 -19 -6 -10 -30 -28 -53 -40
-23 -12 -53 -32 -68 -46 -15 -14 -30 -25 -33 -25 -4 0 -16 -15 -27 -34 -11
-18 -34 -40 -51 -47 -17 -8 -31 -18 -31 -23 0 -15 -33 -35 -57 -36 -13 0 -23
-3 -23 -7 0 -5 -15 -22 -33 -40 -17 -17 -55 -54 -84 -82 -28 -28 -56 -51 -62
-51 -5 0 -23 -12 -40 -27 -86 -79 -105 -94 -127 -99 -13 -3 -24 -12 -24 -20 0
-8 -20 -23 -45 -35 -25 -12 -45 -26 -45 -31 0 -12 -26 -38 -37 -38 -5 0 -19
-10 -30 -23 -38 -41 -71 -67 -83 -67 -7 0 -10 -7 -6 -16 3 -8 2 -12 -3 -9 -5
3 -30 -8 -54 -25 -25 -16 -50 -30 -56 -30 -6 0 -11 -7 -11 -15 0 -8 -6 -15
-14 -15 -8 0 -16 -4 -18 -9 -5 -15 -151 -107 -181 -115 -15 -3 -25 -11 -22
-15 6 -11 -73 -71 -94 -71 -9 0 -27 -12 -40 -25 -14 -15 -34 -25 -52 -25 -16
0 -29 -4 -29 -10 0 -5 -7 -10 -15 -10 -8 0 -15 -5 -15 -11 0 -5 -4 -8 -8 -5
-5 3 -40 6 -78 6 -99 2 -136 10 -130 26 3 8 -1 14 -8 14 -16 0 -26 21 -26 55
0 12 -7 28 -14 35 -11 8 -12 18 -5 36 5 14 7 39 4 55 -3 16 -1 29 5 29 5 0 10
7 10 15 0 41 88 163 106 147 4 -4 4 1 1 10 -5 13 12 36 58 83 36 36 62 65 59
65 -12 0 70 95 151 175 45 44 90 95 100 113 11 17 27 35 37 38 10 3 18 9 18
13 0 11 58 71 93 96 15 11 27 25 27 31 0 7 39 53 88 103 48 50 101 106 117
125 17 19 38 37 47 39 9 3 26 23 37 45 11 22 29 43 40 47 21 6 91 87 91 104 0
10 38 54 125 145 57 60 85 95 85 106 0 6 27 37 60 69 33 33 60 64 60 69 0 6 5
12 10 14 17 5 21 48 4 48 -8 0 -14 -4 -14 -8 0 -4 -12 -9 -27 -10 -16 -1 -32
-8 -38 -15 -25 -31 -79 -67 -101 -67 -13 0 -24 -4 -24 -10 0 -5 -6 -10 -12
-10 -7 0 -24 -9 -38 -20 -14 -11 -31 -20 -38 -20 -8 0 -30 -18 -49 -40 -21
-23 -45 -40 -57 -40 -12 0 -43 -18 -70 -40 -26 -22 -57 -40 -67 -40 -10 0 -19
-4 -19 -10 0 -5 -7 -10 -15 -10 -8 0 -24 -9 -34 -19 -33 -33 -68 -52 -100 -55
-17 -1 -34 -5 -37 -9 -4 -4 -16 -7 -26 -7 -10 0 -18 -4 -18 -10 0 -5 -8 -10
-18 -10 -10 0 -34 -9 -55 -19 -21 -11 -40 -15 -43 -10 -3 6 -25 9 -49 8 -64
-4 -117 34 -124 86 -1 17 -5 34 -9 39 -7 12 -8 76 -1 76 3 0 5 20 5 44 -1 30
5 50 18 65 11 12 16 21 11 21 -4 0 -3 6 2 13 6 6 13 24 16 38 4 14 16 36 27
49 11 13 20 28 20 34 0 7 9 18 20 26 11 8 20 18 20 22 0 5 27 41 60 82 33 41
60 76 60 79 0 3 15 20 33 38 18 19 43 49 57 66 14 18 31 33 38 33 6 0 11 3 10
8 -2 8 40 58 90 106 18 17 50 48 71 69 22 20 43 37 48 37 11 0 56 41 50 46 -2
2 -26 -7 -53 -20 -54 -26 -165 -65 -203 -73 -14 -2 -63 -17 -110 -34 -47 -16
-90 -31 -96 -32 -5 -1 -12 -5 -15 -8 -5 -5 -134 -56 -162 -64 -5 -2 -10 -4
-13 -5 -3 -1 -8 -3 -12 -5 -19 -5 -126 -46 -158 -60 -30 -13 -251 -95 -270
-100 -5 -1 -14 -2 -18 -1 -5 0 -13 -7 -18 -16 -6 -10 -18 -18 -27 -18 -9 -1
-35 -9 -57 -20 -22 -11 -45 -19 -51 -20 -6 0 -60 -25 -122 -55 -61 -30 -140
-64 -176 -75 -36 -11 -68 -25 -71 -30 -3 -4 -29 -16 -58 -25 -28 -10 -61 -23
-73 -30 -11 -7 -36 -18 -55 -23 -19 -6 -67 -25 -108 -42 -41 -17 -82 -32 -90
-34 -63 -14 -81 -19 -81 -26 0 -4 -18 -6 -40 -5 -23 1 -40 -2 -40 -8 0 -6 -8
-2 -19 9 -12 13 -15 21 -7 26 8 5 7 8 -1 8 -21 0 -15 17 17 50 16 17 30 35 30
40 0 5 7 7 16 3 12 -4 10 -9 -13 -24 l-28 -19 30 3 c17 2 45 11 62 21 18 9 33
14 33 10 0 -4 7 0 17 7 9 8 18 13 19 12 5 -3 98 37 104 45 5 7 55 36 130 74
25 13 47 26 48 31 2 4 11 7 20 7 10 1 62 26 117 56 55 30 116 62 135 70 19 9
39 22 45 28 5 7 29 18 51 24 23 7 47 19 54 27 7 8 17 15 22 15 5 0 21 9 35 20
14 11 36 20 48 20 12 0 28 7 35 15 7 8 16 13 20 10 5 -3 15 1 22 9 8 7 24 17
37 21 36 11 139 64 146 74 3 5 20 13 37 17 18 3 49 17 70 30 21 13 44 24 53
24 8 0 20 9 27 20 7 11 20 20 30 20 9 0 24 7 32 16 9 8 19 13 23 11 5 -3 26 5
48 18 70 41 167 85 199 90 17 3 43 15 58 25 15 11 34 20 42 20 8 0 41 15 73
34 32 18 90 48 128 67 39 18 73 37 76 42 3 5 9 8 13 8 10 -1 39 9 82 30 23 10
46 19 53 19 6 0 19 4 29 10 33 18 293 130 318 136 13 3 27 10 30 15 3 5 12 9
19 9 8 0 40 12 72 26 32 15 65 28 74 30 9 2 53 19 99 39 46 20 100 43 119 51
20 8 67 31 104 50 93 48 225 95 267 96 116 2 165 -26 182 -103 18 -85 20 -105
9 -89 -6 8 -11 10 -11 4 0 -5 5 -15 12 -22 14 -14 -16 -52 -42 -52 -9 0 -25
-8 -36 -18 -10 -10 -47 -28 -81 -40 -65 -24 -276 -125 -296 -142 -7 -6 -48
-34 -92 -62 -149 -94 -215 -141 -215 -149 0 -5 -5 -9 -10 -9 -17 0 -90 -57
-182 -141 -103 -95 -172 -150 -213 -172 -16 -8 -55 -40 -86 -70 -54 -54 -88
-92 -205 -232 -32 -38 -64 -76 -71 -83 -33 -34 7 -18 67 27 38 28 48 34 143
85 35 18 83 47 107 65 23 17 51 31 60 31 10 0 34 11 55 25 66 45 179 77 292
82 l103 4 30 -31 c43 -44 63 -88 66 -147 3 -61 -18 -150 -46 -196 -11 -18 -20
-38 -20 -44 0 -7 -9 -23 -20 -36 -25 -28 -53 -76 -80 -134 -11 -24 -24 -43
-30 -43 -6 0 -8 -4 -5 -10 3 -5 0 -10 -8 -10 -8 0 -22 -15 -31 -34 -9 -19 -20
-36 -24 -38 -4 -2 -20 -22 -35 -46 -15 -24 -36 -46 -45 -50 -18 -7 -51 -42
-52 -55 0 -20 -120 -157 -120 -138 0 3 -10 -9 -21 -26 -12 -18 -25 -33 -30
-33 -5 0 -17 -17 -28 -37 -10 -21 -28 -46 -39 -56 -11 -10 -26 -31 -32 -47 -7
-17 -24 -33 -41 -39 -16 -5 -29 -16 -29 -24 0 -19 -30 -44 -62 -52 -25 -6 -31
-16 -27 -41 0 -4 -3 -10 -8 -13 -5 -3 -20 -24 -33 -45 l-24 -39 56 41 c31 22
59 38 63 34 5 -4 5 -2 1 5 -7 13 31 53 51 53 7 0 13 7 13 15 0 9 12 21 28 28
29 13 52 31 52 42 0 12 45 44 63 45 9 0 17 6 17 14 0 13 71 66 89 66 5 0 11 7
15 15 3 8 12 15 21 15 8 0 14 3 14 8 -4 21 3 30 25 36 13 3 52 33 87 66 34 33
71 63 83 66 12 4 27 15 34 25 7 11 20 19 28 19 8 0 14 4 14 8 0 4 22 32 50 61
27 29 47 58 43 64 -3 5 -2 7 4 4 13 -8 63 14 63 28 0 6 12 18 28 27 57 36 67
44 85 66 10 12 23 22 28 22 5 0 25 15 43 33 60 57 90 82 136 114 25 17 58 45
74 62 17 17 35 31 40 31 6 0 22 14 36 30 14 17 30 30 37 30 7 0 13 5 13 10 0
6 9 10 19 10 18 0 67 37 147 109 17 16 42 34 55 41 26 14 59 48 59 62 0 4 6 8
14 8 7 0 26 16 40 35 15 19 35 35 45 35 11 0 32 15 48 33 29 33 59 52 76 48
12 -2 87 66 80 73 -3 3 6 8 21 12 14 3 35 21 46 38 11 18 40 43 65 56 25 13
45 26 45 30 0 5 10 10 23 14 13 3 29 16 36 29 7 13 37 37 67 53 30 16 57 36
59 46 3 9 22 24 41 33 19 9 38 23 41 31 3 8 20 22 37 31 27 14 57 36 129 98 9
8 21 15 25 15 8 0 60 40 92 70 8 8 25 16 37 18 12 2 40 21 64 43 25 23 51 39
66 39 13 0 21 4 18 10 -8 13 77 66 120 74 26 5 35 12 35 26 0 11 5 20 11 20 6
0 22 9 36 20 14 11 34 20 45 20 11 0 33 14 50 30 16 17 34 28 38 25 5 -3 28 1
51 9 24 8 47 12 53 9 5 -4 7 0 4 9 -5 11 2 14 28 13 19 0 34 3 34 7 0 5 13 7
28 6 15 -1 33 1 39 5 6 4 14 3 17 -2 4 -5 22 -8 41 -5 21 2 35 0 35 -6 0 -6 4
-9 9 -5 5 3 22 -11 37 -31 21 -27 28 -48 28 -80 0 -24 3 -44 6 -44 10 0 9 -99
0 -105 -5 -3 -12 -26 -16 -51 -3 -25 -13 -48 -20 -51 -8 -3 -14 -9 -14 -15 0
-5 5 -6 12 -2 13 8 3 -12 -20 -38 -8 -10 -12 -18 -7 -18 4 0 2 -7 -5 -15 -10
-12 -10 -15 1 -15 12 0 12 -2 1 -9 -8 -4 -14 -12 -14 -17 -1 -5 -11 -23 -24
-40 -13 -17 -24 -37 -24 -45 0 -8 -5 -20 -12 -27 -7 -7 -8 -12 -3 -12 5 0 -1
-7 -13 -16 -12 -8 -22 -24 -22 -35 0 -10 -4 -19 -10 -19 -5 0 -10 -6 -10 -14
0 -8 -11 -24 -25 -37 -13 -13 -25 -31 -25 -40 0 -8 -9 -25 -21 -37 -11 -12
-25 -36 -31 -52 -5 -17 -14 -30 -19 -30 -5 0 -9 -7 -9 -15 0 -9 -6 -12 -15 -9
-9 4 -15 1 -15 -8 0 -7 -11 -30 -25 -50 -14 -20 -25 -44 -25 -53 0 -8 -7 -18
-15 -21 -8 -4 -15 -14 -15 -24 0 -9 -10 -25 -22 -34 -46 -33 -63 -47 -48 -41
8 4 2 -5 -13 -19 -16 -14 -27 -34 -25 -44 3 -23 -39 -106 -69 -134 -13 -12
-23 -26 -23 -31 0 -12 -47 -56 -54 -50 -5 6 -31 -37 -31 -53 -1 -19 -39 -104
-47 -104 -4 0 -8 -7 -8 -15 0 -9 -7 -18 -15 -21 -8 -4 -15 -12 -15 -19 0 -14
-28 -46 -54 -61 -11 -5 -20 -17 -21 -25 -2 -8 -17 -37 -34 -64 -17 -27 -31
-54 -31 -61 0 -6 -21 -33 -46 -60 -53 -57 -69 -83 -66 -105 2 -9 -9 -24 -23
-33 -14 -9 -25 -23 -25 -32 0 -18 -35 -69 -71 -104 -32 -31 -73 -90 -62 -90 4
0 -2 -6 -13 -14 -11 -8 -35 -46 -54 -85 -19 -39 -40 -71 -46 -71 -11 0 -39
-49 -36 -63 2 -5 -11 -20 -28 -35 -16 -15 -30 -34 -30 -44 0 -9 -9 -22 -19
-28 -11 -5 -30 -30 -42 -55 -12 -25 -26 -45 -31 -45 -4 0 -8 -9 -8 -20 0 -11
-6 -20 -13 -20 -8 0 -24 -20 -37 -45 -12 -24 -35 -54 -51 -66 -29 -22 -61 -75
-72 -121 -6 -23 -4 -25 13 -21 11 3 20 9 20 13 0 11 37 23 105 33 11 2 27 7
34 11 8 5 28 11 45 13 17 2 33 8 34 13 2 6 10 10 17 10 7 0 15 7 19 15 3 9 19
15 41 15 19 0 35 4 35 8 0 5 14 8 30 7 17 -1 41 3 53 9 27 14 107 40 127 41 8
1 29 7 45 14 17 7 41 14 55 16 14 2 27 4 30 5 3 2 19 4 35 5 17 2 50 6 75 9
64 8 79 8 130 1 25 -4 54 -8 65 -9 23 -3 103 -24 125 -33 17 -7 26 -10 38 -12
30 -4 91 -99 78 -119 -3 -6 0 -12 8 -15 7 -3 16 -20 19 -39 2 -18 7 -43 10
-55 3 -13 1 -23 -5 -23 -7 0 -7 -5 1 -14 9 -11 8 -23 -5 -55 -9 -22 -14 -47
-11 -55 3 -7 0 -19 -6 -25 -6 -6 -7 -11 -3 -11 5 0 3 -7 -5 -16 -10 -12 -10
-17 0 -23 10 -6 9 -10 -3 -14 -9 -4 -15 -10 -14 -14 3 -14 -25 -93 -33 -93 -4
0 -10 -13 -14 -30 -4 -16 -11 -30 -17 -30 -6 0 -8 -3 -5 -6 3 -4 1 -16 -5 -28
-7 -11 -11 -29 -10 -38 4 -21 -37 -70 -51 -61 -6 3 -7 2 -4 -4 7 -11 -13 -73
-24 -73 -4 0 -10 -12 -14 -27 -3 -15 -15 -39 -26 -55 -11 -15 -17 -33 -13 -39
4 -8 3 -9 -4 -5 -11 6 -36 -27 -27 -36 3 -3 -4 -13 -15 -23 -11 -10 -20 -24
-20 -32 0 -7 -4 -13 -10 -13 -5 0 -10 -7 -10 -15 0 -8 -4 -15 -10 -15 -5 0
-10 -4 -10 -9 0 -5 -18 -27 -40 -49 -22 -21 -40 -44 -40 -51 0 -13 -65 -148
-91 -189 -7 -12 -20 -22 -27 -22 -7 0 -10 -5 -7 -10 3 -6 2 -10 -3 -10 -5 0
-15 -15 -22 -32 -18 -48 -34 -82 -41 -88 -4 -3 -22 -32 -40 -65 -18 -33 -38
-64 -46 -68 -7 -4 -13 -14 -13 -21 0 -8 -20 -35 -45 -62 -25 -26 -43 -54 -40
-61 2 -8 -11 -45 -29 -83 -19 -38 -37 -79 -41 -91 -4 -12 -16 -32 -27 -43 -24
-25 -48 -77 -48 -104 0 -10 -9 -29 -19 -41 -21 -24 -98 -211 -103 -251 -2 -14
-9 -31 -15 -38 -7 -7 -13 -20 -13 -28 0 -8 -3 -13 -7 -11 -5 3 -9 -21 -10 -52
-2 -31 -7 -65 -12 -76 -31 -68 -38 -103 -20 -97 6 1 6 -4 1 -15 -18 -35 2
-138 31 -158 12 -8 16 -15 9 -15 -24 0 -11 -16 23 -29 19 -6 43 -23 54 -37 13
-17 30 -25 55 -26 19 -1 34 -4 32 -7 -2 -3 31 -6 74 -6 43 0 76 -3 74 -7 -2
-4 19 -6 48 -6 29 1 69 -2 88 -6 23 -5 30 -4 21 2 -8 6 -9 12 -3 16 6 3 13 2
16 -3 3 -5 21 -6 39 -2 18 5 43 6 55 4 13 -1 32 2 43 7 13 8 19 7 19 0 0 -6 3
-9 8 -7 4 3 36 8 72 12 87 10 91 11 120 22 14 6 31 7 39 3 8 -4 33 0 59 11 24
11 61 19 82 19 20 0 56 6 78 14 23 8 54 13 69 12 15 -2 33 0 39 6 7 5 16 8 20
6 16 -4 79 14 103 29 21 14 70 20 96 12 22 -7 76 11 69 22 -5 9 0 10 14 7 12
-4 24 -2 27 3 3 4 12 6 20 2 8 -3 15 0 15 7 0 7 7 10 15 7 8 -4 16 -3 19 1 2
4 25 7 50 6 33 0 46 3 46 13 0 8 4 12 9 9 5 -3 21 1 37 8 19 10 33 12 45 5 11
-6 20 -6 24 1 3 5 12 7 20 4 8 -4 17 0 20 9 4 9 17 13 40 10 18 -2 36 1 40 6
3 6 12 8 20 4 22 -8 185 36 216 58 14 10 29 16 32 13 3 -3 11 -2 19 2 7 4 36
9 64 10 29 1 61 7 72 13 12 6 34 11 51 11 16 0 31 5 33 12 2 6 23 17 46 23 23
7 39 9 36 4 -3 -5 0 -9 5 -9 6 0 11 3 11 8 0 4 18 8 39 8 49 2 93 12 87 22 -2
4 9 8 26 8 17 1 34 7 39 15 5 8 9 11 9 7 0 -4 19 -1 42 8 22 8 48 13 57 12 19
-4 91 103 250 372 11 19 28 51 38 70 79 153 93 180 91 183 -2 2 5 15 14 29 59
90 248 593 292 778 2 8 12 44 21 80 9 36 18 72 20 80 2 8 10 45 19 83 9 37 18
81 21 97 8 47 14 83 19 105 2 11 7 43 11 70 4 28 9 64 11 80 44 270 58 803 29
1030 -3 22 -8 65 -11 95 -2 30 -6 69 -9 85 -2 17 -7 53 -10 80 -3 28 -8 61
-10 75 -3 14 -7 41 -10 60 -28 176 -83 396 -158 635 -22 72 -41 132 -41 135
-1 3 -4 10 -7 15 -4 6 -12 28 -19 50 -7 22 -18 54 -25 70 -7 17 -39 91 -70
165 -56 134 -200 420 -236 472 -10 14 -19 29 -19 33 0 3 -16 31 -35 61 -19 30
-35 59 -35 64 0 6 -4 10 -10 10 -5 0 -10 4 -10 10 0 11 -62 103 -72 108 -5 2
-8 8 -8 13 0 6 -19 36 -42 67 -92 126 -123 167 -128 172 -3 3 -21 25 -40 50
-48 62 -53 69 -70 88 -9 9 -47 53 -85 97 -132 152 -359 370 -540 520 -120 99
-386 290 -487 350 -291 172 -436 246 -688 353 -156 65 -502 182 -582 196 -15
3 -32 7 -37 10 -5 4 -29 10 -53 15 -24 5 -54 12 -68 16 -14 3 -36 8 -50 11
-14 2 -36 7 -50 11 -26 6 -34 8 -85 17 -16 3 -41 8 -54 10 -14 3 -45 8 -70 11
-25 3 -57 7 -71 10 -14 3 -43 7 -65 10 -22 2 -62 7 -90 11 -108 14 -330 26
-503 28 -79 0 -144 0 -145 -1z"/>
<path d="M3975 5260 c-3 -6 1 -7 9 -4 18 7 21 14 7 14 -6 0 -13 -4 -16 -10z"/>
</g>
</svg>
